<svg version="1.1" id="レイヤー_1" xmlns="http://www.w3.org/2000/svg" x="0" y="0" viewBox="0 0 132 36" xml:space="preserve"><style>.st0{fill:#E60012}</style><path class="st0" d="M23.8 16.9c-1.2 0-2.2 1-2.2 2.2 0 1.2 1 2.2 2.2 2.2 1.2 0 2.2-1 2.2-2.2 0-1.2-1-2.2-2.2-2.2zM12.5 9c-1 0-2 .4-2.7 1.1-.7.7-1.1 1.7-1.1 2.7v10.5c0 1 .4 2 1.1 2.7.7.7 1.7 1.1 2.7 1.1h3.1V9h-3.1zm-.1 6.7c-1.1 0-2-.9-2-2s.9-2 2-2 2 .9 2 2-.9 2-2 2zM41.7 13.7c-2.7 0-4.8 2.2-4.8 5s2.2 5 4.8 5c2.7 0 4.8-2.2 4.8-5s-2.2-5-4.8-5z"/><path class="st0" d="M0 0v36h132V0H0zm17.4 28.6c0 .1-.1.2-.2.2h-4.7c-3.1 0-5.5-2.5-5.5-5.5V12.8c0-3.1 2.5-5.5 5.5-5.5h4.7c.1 0 .2.1.2.2v21.1zm11.1-5.4c0 3.1-2.5 5.5-5.5 5.5h-3.3c-.1 0-.2-.1-.2-.2V7.4c0-.1.1-.1.1-.1H23c3.1 0 5.5 2.5 5.5 5.5v10.4zm13.2 3.6c-4.5 0-8.2-3.6-8.2-8.1s3.7-8.1 8.2-8.1c4.5 0 8.2 3.6 8.2 8.1 0 4.4-3.7 8.1-8.2 8.1zm25.7-.5h-2.7l-8.1-10.1v10.1h-3.1V11.1h3.1l7.6 9.8v-9.8h3.2v15.2zm16 0H71.8V11.1h3.3v12.2h8.3v3zm6.4 0h-3.3V11.1h3.3v15.2zm18.2 0h-2.7l-8.1-10.1v10.1h-3.1V11.1h3.1l7.6 9.8v-9.8h3.2v15.2zM125 14h-9.3v3h8.8v2.8h-8.8v3.4h9.3v3h-12.5V11.1H125V14z"/></svg>