<svg version="1.1" id="icon" xmlns="http://www.w3.org/2000/svg" x="0" y="0" viewBox="0 0 88 88" xml:space="preserve"><style>.st0{fill:#FFFFFF}.st1{fill:#E60012}</style><path class="st0" d="M48.4 59.3h1.7v8.1h-1.7zM33.4 32.1c0 1.6 1.3 2.9 2.9 2.9 1.6 0 2.9-1.3 2.9-2.9 0-1.6-1.3-2.9-2.9-2.9-1.6 0-2.9 1.3-2.9 2.9zM42.2 59.3h-1.7v8.1h6.2v-1.6h-4.5zM51.5 22.9h-4.7c-.1 0-.2.1-.2.2v30.3c0 .1.1.2.2.2v.1h4.7c4.4 0 7.9-3.6 7.9-7.9v-15c0-4.4-3.6-7.9-7.9-7.9zm1.1 19.9c-1.7 0-3.1-1.4-3.1-3.1s1.4-3.1 3.1-3.1c1.7 0 3.1 1.4 3.1 3.1 0 1.7-1.4 3.1-3.1 3.1zM58.1 64.5l-4-5.2h-1.6v8.1h1.6V62l4.4 5.4h1.3v-8.1h-1.7zM36.4 64.5l-4-5.2h-1.6v8.1h1.6V62l4.3 5.4h1.4v-8.1h-1.7zM62.3 67.4H69v-1.6h-5V64h4.7v-1.5H64v-1.6h5v-1.6h-6.7zM24.4 59c-2.4 0-4.3 2-4.3 4.4 0 2.4 2 4.3 4.4 4.3 2.4-.1 4.3-2 4.3-4.4 0-2.4-2-4.3-4.4-4.3zm2.6 4.4c0 1.5-1.1 2.7-2.6 2.7s-2.7-1.1-2.8-2.6c0-1.5 1.1-2.7 2.6-2.8 1.5-.1 2.7 1.1 2.8 2.6v.1z"/><path class="st0" d="M43.3 22.8h-6.7c-4.4 0-7.9 3.6-7.9 7.9v14.8c0 4.4 3.6 7.9 7.9 7.9h6.7c.1 0 .2-.1.2-.2V23c0-.1-.1-.2-.2-.2zM41 51.1h-4.5c-3 0-5.4-2.4-5.4-5.4v-15c0-3 2.4-5.4 5.4-5.4H41v25.8z"/><path class="st1" d="M24.2 60.7c-1.5.1-2.6 1.3-2.6 2.8.1 1.5 1.3 2.6 2.8 2.6s2.6-1.2 2.6-2.7v-.1c-.1-1.5-1.3-2.7-2.8-2.6z"/><path class="st1" d="M44 0C19.7 0 0 19.7 0 44s19.7 44 44 44 44-19.7 44-44S68.3 0 44 0zm15.8 67.4h-1.3L54.1 62v5.4h-1.6v-8.1h1.6l4 5.2v-5.2h1.7v8.1zm-.4-21.6c0 4.3-3.5 7.9-7.9 7.9h-4.7v-.1c-.1 0-.2-.1-.2-.2V23.1c0-.1.1-.2.2-.2h4.7c4.3 0 7.9 3.5 7.9 7.9v15zm-9.3 13.5v8.1h-1.7v-8.1h1.7zm-3.4 6.5v1.6h-6.2v-8.1h1.7v6.5h4.5zm-3.2-12.6c0 .1-.1.2-.2.2h-6.7c-4.3 0-7.9-3.5-7.9-7.9V30.7c0-4.3 3.5-7.9 7.9-7.9h6.7c.1 0 .2.1.2.2v30.2zm-5.4 6.1v8.1h-1.4L32.4 62v5.4h-1.6v-8.1h1.6l4 5.2v-5.2h1.7zm-9.3 4c0 2.4-1.9 4.3-4.3 4.4-2.4 0-4.4-1.9-4.4-4.3S22 59 24.4 59s4.4 1.9 4.4 4.3zM69 60.9h-5v1.6h4.7V64H64v1.8h5v1.6h-6.7v-8.1H69v1.6z"/><path class="st1" d="M52.6 36.6c-1.7 0-3.1 1.4-3.1 3.1s1.4 3.1 3.1 3.1c1.7 0 3.1-1.4 3.1-3.1 0-1.7-1.4-3.1-3.1-3.1zM31.1 30.7v15c0 3 2.4 5.4 5.4 5.4H41V25.3h-4.5c-3 0-5.4 2.4-5.4 5.4zm8.1 1.4c0 1.6-1.3 2.9-2.9 2.9-1.6 0-2.9-1.3-2.9-2.9 0-1.6 1.3-2.9 2.9-2.9 1.6 0 2.9 1.3 2.9 2.9z"/></svg>