<svg height="88" viewBox="0 0 88 88" width="88" xmlns="http://www.w3.org/2000/svg"><g fill="#fe3c32"><path d="m44 3c22.6 0 41 18.4 41 41s-18.4 41-41 41-41-18.4-41-41 18.4-41 41-41m0-3c-24.3 0-44 19.7-44 44s19.7 44 44 44 44-19.7 44-44-19.7-44-44-44z"/><path d="m44 50h-17v3h17zm17.1-26h-34.2c-3.7-.1-6.8 2.9-6.9 6.6v25.2c0 3.6 3.2 6.2 7 6.2h11l6 6 6-6h11c3.8 0 7-2.5 7-6.2v-25.2c-.1-3.7-3.1-6.7-6.9-6.6zm3.9 32c0 1.8-2.1 3-4 3h-10l-1.6.1-1 1-4.4 4.2-4.4-4.3-1-1h-11.6c-1.9 0-4-1.2-4-3v-10h42zm0-13h-42v-12c.2-2.1 1.9-3.8 4-4h34c2.1.2 3.8 1.9 4 4z"/></g></svg>